<?xml version="1.0" encoding="utf-8"?>
<!-- Generator: Adobe Illustrator 27.4.0, SVG Export Plug-In . SVG Version: 6.00 Build 0)  -->
<svg version="1.1" id="Layer_1" xmlns="http://www.w3.org/2000/svg" xmlns:xlink="http://www.w3.org/1999/xlink" x="0px" y="0px"
	 viewBox="0 0 12 12" style="enable-background:new 0 0 12 12;" xml:space="preserve">
<style type="text/css">
	.st0{fill:#F9EFE4;}
	.st1{fill:#631A1B;}
</style>
<circle class="st0" cx="6" cy="5.99" r="5.85"/>
<g>
	<path class="st1" d="M6.73,0.91C6.67,0.9,6.62,0.87,6.58,0.83C6.54,0.78,6.53,0.72,6.54,0.65C6.55,0.59,6.58,0.54,6.63,0.5
		C6.67,0.46,6.73,0.45,6.8,0.46C6.86,0.47,6.91,0.5,6.95,0.55C6.99,0.59,7,0.65,6.99,0.72C6.98,0.78,6.95,0.83,6.91,0.87
		C6.86,0.91,6.8,0.92,6.73,0.91z"/>
	<path class="st1" d="M7.62,1.12C7.56,1.1,7.51,1.06,7.49,1.01C7.46,0.95,7.46,0.9,7.48,0.83C7.5,0.77,7.54,0.72,7.59,0.7
		C7.64,0.67,7.7,0.67,7.77,0.69C7.83,0.71,7.88,0.75,7.9,0.8c0.03,0.05,0.03,0.11,0.01,0.18C7.89,1.04,7.85,1.09,7.8,1.11
		C7.74,1.14,7.69,1.14,7.62,1.12z"/>
	<path class="st1" d="M8.46,1.49C8.4,1.45,8.36,1.41,8.34,1.35C8.33,1.29,8.33,1.23,8.37,1.18C8.4,1.12,8.44,1.08,8.5,1.06
		c0.06-0.02,0.12-0.01,0.18,0.02c0.06,0.03,0.1,0.08,0.11,0.14C8.81,1.28,8.8,1.34,8.77,1.4c-0.03,0.06-0.08,0.1-0.14,0.11
		C8.57,1.53,8.52,1.52,8.46,1.49z"/>
	<path class="st1" d="M9.23,2C9.17,1.96,9.14,1.91,9.14,1.85C9.13,1.79,9.15,1.73,9.19,1.68C9.23,1.63,9.28,1.6,9.35,1.59
		C9.41,1.59,9.46,1.6,9.51,1.65C9.57,1.69,9.6,1.74,9.6,1.8c0.01,0.06-0.01,0.12-0.05,0.17C9.51,2.02,9.45,2.05,9.39,2.06
		C9.33,2.06,9.28,2.04,9.23,2z"/>
	<path class="st1" d="M9.88,2.64C9.84,2.59,9.82,2.53,9.82,2.47c0-0.06,0.03-0.11,0.08-0.16c0.05-0.04,0.11-0.06,0.17-0.06
		c0.06,0,0.11,0.03,0.16,0.08c0.04,0.05,0.06,0.11,0.06,0.17c0,0.06-0.03,0.11-0.08,0.16c-0.05,0.04-0.11,0.06-0.17,0.06
		C9.98,2.72,9.93,2.69,9.88,2.64z"/>
	<path class="st1" d="M10.42,3.38c-0.03-0.06-0.04-0.12-0.03-0.17c0.02-0.06,0.05-0.11,0.11-0.14c0.06-0.03,0.12-0.04,0.17-0.03
		c0.06,0.02,0.11,0.05,0.14,0.11s0.04,0.12,0.03,0.17c-0.02,0.06-0.05,0.11-0.11,0.14c-0.06,0.03-0.12,0.04-0.17,0.03
		C10.5,3.48,10.45,3.44,10.42,3.38z"/>
	<path class="st1" d="M10.81,4.21c-0.02-0.06-0.02-0.12,0-0.18c0.03-0.06,0.07-0.09,0.13-0.12c0.06-0.02,0.12-0.02,0.18,0
		c0.06,0.03,0.09,0.07,0.12,0.13c0.02,0.06,0.02,0.12,0,0.18c-0.03,0.06-0.07,0.09-0.13,0.12c-0.06,0.02-0.12,0.02-0.18,0
		C10.87,4.32,10.83,4.27,10.81,4.21z"/>
	<path class="st1" d="M11.05,5.1c-0.01-0.07,0-0.12,0.04-0.17c0.03-0.05,0.09-0.08,0.15-0.09c0.07-0.01,0.12,0,0.17,0.04
		c0.05,0.03,0.08,0.09,0.09,0.15c0.01,0.07,0,0.12-0.04,0.17c-0.04,0.05-0.09,0.08-0.15,0.09c-0.07,0.01-0.12,0-0.17-0.04
		C11.09,5.21,11.06,5.16,11.05,5.1z"/>
	<path class="st1" d="M11.13,6c0-0.07,0.02-0.12,0.07-0.16c0.04-0.04,0.1-0.06,0.17-0.06c0.07,0,0.12,0.02,0.16,0.07
		c0.04,0.04,0.06,0.1,0.06,0.17c0,0.07-0.02,0.12-0.07,0.16c-0.04,0.04-0.1,0.06-0.17,0.06c-0.07,0-0.12-0.02-0.16-0.07
		C11.15,6.13,11.13,6.07,11.13,6z"/>
	<path class="st1" d="M11.04,6.92c0.01-0.07,0.04-0.12,0.09-0.15c0.05-0.03,0.11-0.05,0.17-0.03s0.12,0.04,0.15,0.09
		C11.5,6.88,11.51,6.94,11.49,7c-0.01,0.07-0.04,0.12-0.09,0.15c-0.05,0.03-0.11,0.05-0.17,0.03c-0.07-0.01-0.12-0.04-0.15-0.09
		C11.04,7.04,11.03,6.99,11.04,6.92z"/>
	<path class="st1" d="M10.8,7.8c0.02-0.06,0.06-0.11,0.12-0.13c0.06-0.03,0.11-0.03,0.18,0c0.06,0.02,0.11,0.06,0.13,0.12
		c0.03,0.06,0.03,0.11,0,0.18c-0.02,0.06-0.06,0.11-0.12,0.13c-0.06,0.03-0.11,0.03-0.18,0c-0.06-0.02-0.11-0.06-0.13-0.12
		C10.77,7.92,10.77,7.86,10.8,7.8z"/>
	<path class="st1" d="M10.4,8.63c0.03-0.06,0.08-0.09,0.14-0.11c0.06-0.01,0.12,0,0.17,0.03s0.09,0.08,0.11,0.14
		c0.01,0.06,0,0.12-0.03,0.17s-0.08,0.09-0.14,0.11c-0.06,0.01-0.12,0-0.17-0.03s-0.09-0.08-0.11-0.14
		C10.35,8.74,10.36,8.68,10.4,8.63z"/>
	<path class="st1" d="M9.86,9.37c0.04-0.05,0.1-0.08,0.16-0.08c0.06,0,0.12,0.02,0.17,0.06c0.05,0.04,0.08,0.1,0.08,0.16
		c0,0.06-0.02,0.12-0.06,0.17c-0.04,0.05-0.1,0.08-0.16,0.08c-0.06,0-0.12-0.02-0.17-0.06C9.83,9.65,9.8,9.59,9.8,9.53
		C9.79,9.47,9.81,9.42,9.86,9.37z"/>
	<path class="st1" d="M9.19,10C9.24,9.96,9.3,9.94,9.36,9.95c0.06,0.01,0.11,0.04,0.15,0.09c0.04,0.05,0.06,0.11,0.05,0.17
		c-0.01,0.06-0.04,0.11-0.09,0.15c-0.05,0.04-0.11,0.06-0.17,0.05c-0.06-0.01-0.11-0.04-0.15-0.09c-0.04-0.05-0.06-0.11-0.05-0.17
		C9.11,10.1,9.14,10.04,9.19,10z"/>
	<path class="st1" d="M8.43,10.5c0.06-0.03,0.12-0.04,0.18-0.02c0.06,0.02,0.1,0.06,0.14,0.11c0.03,0.06,0.04,0.12,0.02,0.18
		c-0.02,0.06-0.06,0.1-0.11,0.14c-0.06,0.03-0.12,0.04-0.18,0.02c-0.06-0.02-0.1-0.06-0.14-0.11c-0.03-0.06-0.04-0.12-0.02-0.18
		C8.33,10.58,8.37,10.54,8.43,10.5z"/>
	<path class="st1" d="M7.58,10.87c0.06-0.02,0.12-0.02,0.18,0.01c0.05,0.03,0.09,0.07,0.11,0.14c0.02,0.06,0.02,0.12-0.01,0.18
		c-0.03,0.05-0.07,0.09-0.14,0.11c-0.06,0.02-0.12,0.02-0.18-0.01c-0.05-0.03-0.09-0.07-0.11-0.14c-0.02-0.06-0.02-0.12,0.01-0.18
		C7.48,10.92,7.52,10.89,7.58,10.87z"/>
	<path class="st1" d="M6.69,11.07c0.07-0.01,0.12,0.01,0.17,0.04c0.05,0.04,0.08,0.09,0.09,0.15c0.01,0.07-0.01,0.12-0.04,0.17
		c-0.04,0.05-0.09,0.08-0.15,0.09c-0.07,0.01-0.12-0.01-0.17-0.04c-0.05-0.04-0.08-0.09-0.09-0.15c-0.01-0.07,0.01-0.12,0.04-0.17
		C6.58,11.11,6.63,11.08,6.69,11.07z"/>
	<path class="st1" d="M5.78,11.11c0.07,0,0.12,0.03,0.16,0.07C5.98,11.23,6,11.28,6,11.35c0,0.07-0.03,0.12-0.07,0.16
		s-0.1,0.06-0.17,0.06c-0.07,0-0.12-0.03-0.16-0.07c-0.04-0.04-0.06-0.1-0.06-0.17c0-0.07,0.03-0.12,0.07-0.16
		C5.65,11.13,5.71,11.11,5.78,11.11z"/>
	<path class="st1" d="M4.87,10.99c0.06,0.01,0.11,0.05,0.15,0.1c0.03,0.05,0.04,0.11,0.03,0.17c-0.01,0.07-0.05,0.11-0.1,0.15
		c-0.05,0.03-0.11,0.04-0.17,0.03c-0.06-0.01-0.11-0.05-0.15-0.1c-0.03-0.05-0.04-0.11-0.03-0.17c0.01-0.07,0.05-0.11,0.1-0.15
		C4.74,10.98,4.8,10.97,4.87,10.99z"/>
	<path class="st1" d="M4,10.71c0.06,0.03,0.1,0.07,0.13,0.12c0.02,0.06,0.02,0.12,0,0.18c-0.03,0.06-0.07,0.1-0.12,0.13
		c-0.06,0.02-0.12,0.02-0.18,0s-0.1-0.07-0.13-0.12c-0.02-0.06-0.02-0.12,0-0.18c0.03-0.06,0.07-0.1,0.12-0.13
		C3.88,10.68,3.94,10.68,4,10.71z"/>
	<path class="st1" d="M3.18,10.27c0.06,0.04,0.09,0.08,0.1,0.14c0.01,0.06,0,0.12-0.04,0.17c-0.04,0.06-0.08,0.09-0.14,0.1
		c-0.06,0.01-0.12,0-0.17-0.04c-0.06-0.04-0.09-0.08-0.1-0.14c-0.01-0.06,0-0.12,0.04-0.17c0.04-0.06,0.08-0.09,0.14-0.1
		C3.07,10.23,3.13,10.24,3.18,10.27z"/>
	<path class="st1" d="M2.47,9.7c0.05,0.05,0.07,0.1,0.07,0.16s-0.02,0.12-0.07,0.16c-0.05,0.05-0.1,0.07-0.16,0.07
		c-0.06,0-0.12-0.02-0.16-0.07C2.1,9.99,2.08,9.94,2.08,9.88c0-0.06,0.02-0.12,0.07-0.16c0.05-0.05,0.1-0.07,0.16-0.07
		C2.37,9.64,2.42,9.66,2.47,9.7z"/>
	<path class="st1" d="M1.86,9.02C1.9,9.07,1.92,9.13,1.91,9.19C1.9,9.25,1.87,9.3,1.81,9.34C1.76,9.38,1.7,9.39,1.64,9.38
		C1.58,9.38,1.53,9.34,1.49,9.29C1.45,9.24,1.44,9.18,1.45,9.12c0.01-0.06,0.04-0.11,0.09-0.15C1.6,8.93,1.65,8.92,1.71,8.92
		C1.77,8.93,1.82,8.97,1.86,9.02z"/>
	<path class="st1" d="M1.39,8.23C1.42,8.29,1.42,8.35,1.4,8.41c-0.02,0.06-0.06,0.1-0.12,0.13C1.22,8.57,1.16,8.57,1.11,8.55
		c-0.06-0.02-0.1-0.06-0.13-0.12C0.95,8.37,0.94,8.31,0.96,8.26c0.02-0.06,0.06-0.1,0.12-0.13C1.14,8.1,1.2,8.09,1.26,8.11
		C1.32,8.13,1.36,8.17,1.39,8.23z"/>
	<path class="st1" d="M1.06,7.38C1.08,7.44,1.07,7.5,1.04,7.55C1.02,7.61,0.97,7.64,0.9,7.66C0.84,7.68,0.78,7.67,0.73,7.64
		C0.67,7.61,0.64,7.56,0.62,7.5C0.6,7.44,0.61,7.38,0.64,7.32c0.03-0.05,0.08-0.09,0.14-0.11C0.84,7.2,0.9,7.21,0.96,7.24
		C1.01,7.27,1.04,7.31,1.06,7.38z"/>
	<path class="st1" d="M0.9,6.48C0.9,6.55,0.89,6.6,0.85,6.65C0.81,6.7,0.76,6.72,0.69,6.73C0.62,6.74,0.57,6.72,0.52,6.68
		C0.47,6.64,0.45,6.59,0.44,6.52C0.43,6.46,0.45,6.4,0.49,6.35c0.04-0.05,0.09-0.07,0.16-0.08c0.07-0.01,0.12,0.01,0.17,0.05
		C0.86,6.36,0.89,6.41,0.9,6.48z"/>
	<path class="st1" d="M0.89,5.56C0.88,5.63,0.86,5.68,0.81,5.72c-0.05,0.04-0.1,0.06-0.17,0.05S0.52,5.74,0.48,5.69
		c-0.04-0.05-0.06-0.1-0.05-0.17S0.46,5.4,0.51,5.36c0.05-0.04,0.1-0.06,0.17-0.05C0.75,5.32,0.8,5.35,0.84,5.39
		C0.88,5.44,0.9,5.49,0.89,5.56z"/>
	<path class="st1" d="M1.05,4.65C1.03,4.72,1,4.76,0.94,4.8C0.89,4.83,0.83,4.83,0.77,4.81S0.66,4.76,0.62,4.71
		C0.59,4.66,0.59,4.6,0.61,4.53c0.02-0.06,0.05-0.11,0.11-0.14c0.05-0.03,0.11-0.04,0.18-0.02C0.95,4.39,1,4.42,1.03,4.48
		C1.06,4.53,1.07,4.59,1.05,4.65z"/>
	<path class="st1" d="M1.36,3.79c-0.03,0.06-0.07,0.1-0.13,0.12C1.18,3.93,1.12,3.93,1.06,3.9C1,3.87,0.96,3.83,0.94,3.77
		C0.92,3.72,0.92,3.66,0.95,3.6c0.03-0.06,0.07-0.1,0.13-0.12C1.14,3.46,1.2,3.46,1.26,3.49c0.06,0.03,0.1,0.07,0.12,0.13
		C1.4,3.67,1.39,3.73,1.36,3.79z"/>
	<path class="st1" d="M1.83,3.01C1.79,3.06,1.74,3.09,1.68,3.1c-0.06,0.01-0.12,0-0.17-0.04c-0.05-0.04-0.09-0.09-0.1-0.15
		c-0.01-0.06,0-0.12,0.04-0.17c0.04-0.05,0.09-0.09,0.15-0.1c0.06-0.01,0.12,0,0.17,0.04c0.05,0.04,0.09,0.09,0.1,0.15
		C1.88,2.9,1.87,2.95,1.83,3.01z"/>
	<path class="st1" d="M2.43,2.31c-0.05,0.05-0.1,0.07-0.16,0.07C2.2,2.38,2.15,2.35,2.1,2.3C2.06,2.26,2.04,2.2,2.04,2.14
		c0-0.06,0.03-0.11,0.07-0.16c0.05-0.05,0.1-0.07,0.16-0.07c0.06,0,0.11,0.03,0.16,0.07C2.48,2.03,2.5,2.09,2.5,2.15
		S2.48,2.26,2.43,2.31z"/>
	<path class="st1" d="M3.14,1.73C3.08,1.77,3.03,1.78,2.97,1.77c-0.06-0.01-0.11-0.05-0.15-0.1S2.77,1.56,2.78,1.5
		c0.01-0.06,0.05-0.11,0.1-0.15S3,1.3,3.06,1.31c0.06,0.01,0.11,0.05,0.15,0.1c0.04,0.06,0.05,0.11,0.04,0.17
		C3.23,1.65,3.19,1.69,3.14,1.73z"/>
	<path class="st1" d="M3.95,1.29C3.89,1.32,3.83,1.32,3.77,1.3c-0.06-0.02-0.1-0.06-0.13-0.12C3.62,1.11,3.62,1.05,3.64,0.99
		c0.02-0.06,0.06-0.1,0.12-0.13s0.12-0.03,0.18-0.01C4,0.88,4.04,0.92,4.06,0.99c0.03,0.06,0.03,0.12,0.01,0.18
		C4.05,1.22,4.01,1.26,3.95,1.29z"/>
	<path class="st1" d="M4.81,1C4.75,1.01,4.69,1.01,4.64,0.97c-0.05-0.03-0.09-0.08-0.1-0.15C4.52,0.76,4.53,0.71,4.56,0.65
		C4.59,0.6,4.64,0.57,4.7,0.55c0.06-0.02,0.12-0.01,0.18,0.02c0.05,0.03,0.09,0.08,0.1,0.15C5,0.79,4.99,0.85,4.96,0.9
		S4.88,0.98,4.81,1z"/>
	<path class="st1" d="M5.72,0.87c-0.07,0-0.12-0.02-0.17-0.06C5.51,0.77,5.48,0.72,5.48,0.65c0-0.07,0.02-0.12,0.06-0.17
		c0.04-0.05,0.09-0.07,0.16-0.07c0.07,0,0.12,0.01,0.17,0.06c0.05,0.04,0.07,0.09,0.07,0.16c0,0.07-0.01,0.12-0.06,0.17
		S5.79,0.86,5.72,0.87z"/>
</g>
<g>
	<path class="st1" d="M3.87,5.94c0-0.54,0.09-1.02,0.26-1.46C4.31,4.04,4.56,3.69,4.9,3.42c0.34-0.27,0.74-0.4,1.19-0.4
		c0.32,0,0.65,0.12,0.99,0.37c0.08,0.05,0.15,0.1,0.21,0.15c0.08,0.07,0.16,0.11,0.22,0.11c0.04,0,0.07-0.01,0.09-0.04
		c0.02-0.02,0.04-0.07,0.07-0.14L7.8,3.08H8v2.21H7.8C7.63,4.64,7.38,4.14,7.07,3.8C6.75,3.45,6.43,3.27,6.1,3.27
		c-0.22,0-0.42,0.04-0.58,0.13c-0.16,0.08-0.3,0.2-0.4,0.34C5.02,3.88,4.94,4.07,4.87,4.3C4.81,4.54,4.77,4.78,4.74,5.04
		C4.72,5.3,4.71,5.6,4.71,5.94c0,0.34,0.01,0.65,0.04,0.91C4.78,7.12,4.83,7.37,4.9,7.61C4.96,7.85,5.05,8.05,5.17,8.2
		C5.28,8.36,5.42,8.48,5.6,8.57c0.18,0.09,0.39,0.14,0.62,0.14c0.26,0,0.5-0.06,0.71-0.17c0.21-0.11,0.37-0.26,0.5-0.45
		c0.12-0.19,0.22-0.4,0.29-0.62c0.07-0.22,0.11-0.46,0.13-0.71h0.29C8.12,6.88,8.11,6.99,8.09,7.12C8.08,7.24,8.04,7.37,8,7.52
		C7.96,7.66,7.91,7.8,7.84,7.93C7.78,8.07,7.7,8.2,7.6,8.32C7.5,8.45,7.38,8.56,7.26,8.65C7.13,8.75,6.98,8.82,6.81,8.88
		C6.63,8.93,6.43,8.96,6.22,8.96c-0.37,0-0.71-0.09-1.01-0.26C4.9,8.52,4.66,8.29,4.47,8.01C4.28,7.72,4.13,7.4,4.03,7.04
		C3.92,6.69,3.87,6.32,3.87,5.94z"/>
</g>
</svg>
